<?xml version="1.0" encoding="UTF-8"?><svg id="Layer_2" xmlns="http://www.w3.org/2000/svg" xmlns:xlink="http://www.w3.org/1999/xlink" viewBox="0 0 449 449"><defs><style>.cls-1{fill:#b2f5ff;}.cls-1,.cls-2,.cls-3{stroke:#009fff;stroke-miterlimit:10;stroke-width:3px;}.cls-4,.cls-3{fill:none;}.cls-5{filter:url(#outer-glow-1);}.cls-2{fill:#fff;}.cls-6{fill:#0033ad;}.cls-7{clip-path:url(#clippath);}</style><clipPath id="clippath"><circle class="cls-4" cx="224.5" cy="224.5" r="224.5"/></clipPath><filter id="outer-glow-1" x="-18.27" y="-73.27" width="486" height="466" filterUnits="userSpaceOnUse"><feOffset dx="0" dy="0"/><feGaussianBlur result="blur" stdDeviation="35.92"/><feFlood flood-color="#fff" flood-opacity=".36"/><feComposite in2="blur" operator="in"/><feComposite in="SourceGraphic"/></filter></defs><g id="Layer_1-2"><g class="cls-7"><rect x="-304" y="-164" width="1200" height="741"/><g id="Layer_1-2" class="cls-5"><path class="cls-6" d="M163.84,158.89c-.57,9.99,7.11,18.54,17.1,19.11h1.08c10.06,0,18.18-8.12,18.1-18.18,0-10.06-8.12-18.18-18.18-18.1-9.63,0-17.6,7.54-18.1,17.17Z"/><path class="cls-6" d="M96.16,154.31c-3.23-.22-6.03,2.3-6.18,5.53s2.3,6.03,5.53,6.18c3.23.22,5.96-2.3,6.18-5.53.22-3.23-2.3-5.96-5.53-6.18h0Z"/><path class="cls-6" d="M162.69,53c3.25-1.63,4.3-6.01,1.88-8.99-1.4-1.74-3.77-2.5-5.93-1.96-3.78.93-5.49,5.03-3.85,8.3,1.44,2.95,4.96,4.17,7.9,2.66-.07,0,0,0,0,0Z"/><path class="cls-6" d="M181.08,85.77c4.45-2.23,6.25-7.69,4.02-12.14s-7.69-6.25-12.14-4.02-6.25,7.69-4.02,12.14c2.23,4.45,7.69,6.25,12.14,4.02Z"/><path class="cls-6" d="M119.15,107.82c3.45,2.23,8.05,1.29,10.35-2.16,2.23-3.45,1.29-8.05-2.16-10.35-3.45-2.23-8.05-1.29-10.35,2.16h0c-2.3,3.45-1.29,8.12,2.16,10.35Z"/><path class="cls-6" d="M130.14,151.07c-5.03-.29-9.27,3.52-9.56,8.55s3.52,9.27,8.55,9.56c5.03.29,9.27-3.52,9.56-8.55h0c.29-4.96-3.52-9.27-8.55-9.56Z"/><path class="cls-6" d="M120.16,211.93c-3.66,1.87-5.17,6.32-3.3,10.06,1.87,3.66,6.32,5.17,10.06,3.3,3.66-1.87,5.17-6.32,3.3-10.06h0c-1.87-3.66-6.39-5.17-10.06-3.3h0Z"/><path class="cls-6" d="M155.36,132.32c4.96,3.23,11.57,1.87,14.73-3.09,3.23-4.96,1.87-11.57-3.09-14.73-4.96-3.23-11.57-1.87-14.73,3.09-3.23,4.89-1.87,11.5,3.09,14.73h0Z"/><path class="cls-6" d="M267.08,85.05c4.17,2.73,9.84,1.58,12.57-2.59,2.73-4.17,1.58-9.84-2.59-12.57-4.17-2.73-9.84-1.58-12.57,2.59h0c-2.8,4.24-1.65,9.84,2.59,12.57h0Z"/><path class="cls-6" d="M285.62,53.08c2.73,1.8,6.32,1.01,8.12-1.72s1.01-6.32-1.72-8.12-6.32-1.01-8.12,1.65c-1.72,2.73-.93,6.39,1.72,8.19h0Z"/><path class="cls-6" d="M268.45,141.79c-9.99-.57-18.61,7.11-19.11,17.1-.57,9.99,7.11,18.61,17.1,19.11h1.01c9.99,0,18.1-8.12,18.1-18.18.07-9.56-7.47-17.53-17.1-18.03h0Z"/><path class="cls-6" d="M187.05,131.03c3.09,6.11,9.34,9.99,16.24,9.99,9.99,0,18.1-8.12,18.1-18.18,0-2.8-.65-5.6-1.94-8.19-4.53-8.98-15.45-12.57-24.36-8.05-8.98,4.6-12.57,15.52-8.05,24.43h0Z"/><path class="cls-6" d="M329.23,107.82c3.66-1.87,5.1-6.39,3.23-10.06s-6.39-5.1-10.06-3.23-5.1,6.32-3.3,9.99c1.94,3.66,6.39,5.17,10.13,3.3h0Z"/><path class="cls-6" d="M283.25,113.57c-5.24,2.66-7.4,9.05-4.74,14.3,2.66,5.24,9.05,7.4,14.3,4.74s7.4-9.05,4.74-14.3-9.05-7.33-14.3-4.74Z"/><path class="cls-6" d="M223.97,50.35c4.1.22,7.62-2.95,7.9-7.04s-2.95-7.62-7.04-7.9c-4.1-.22-7.62,2.87-7.9,6.97-.22,4.17,2.95,7.69,7.04,7.97h0Z"/><path class="cls-6" d="M223.9,97.26c5.89.36,10.92-4.17,11.21-10.06.36-5.89-4.17-10.92-10.06-11.21-5.89-.36-10.92,4.17-11.21,10.06-.29,5.89,4.17,10.92,10.06,11.21h0Z"/><path class="cls-6" d="M166.14,206.18c5.24-2.66,7.4-9.05,4.74-14.3-2.66-5.24-9.05-7.4-14.3-4.74s-7.4,9.05-4.74,14.3c2.66,5.24,9.05,7.4,14.3,4.74Z"/><path class="cls-6" d="M230.8,112.85c-5.46,8.41-3.16,19.61,5.24,25.07s19.61,3.16,25.07-5.24c5.46-8.41,3.16-19.61-5.24-25.07-2.95-1.94-6.39-2.95-9.91-2.95-6.11,0-11.78,3.09-15.16,8.19Z"/><path class="cls-6" d="M262.34,188.72c-4.53-8.98-15.45-12.57-24.36-8.05-8.98,4.53-12.57,15.45-8.05,24.36,4.53,8.98,15.45,12.57,24.36,8.05h0c8.91-4.45,12.57-15.23,8.12-24.21q0-.07-.07-.14Z"/><path class="cls-6" d="M294.02,187.43c-4.96-3.23-11.57-1.87-14.73,3.09-3.23,4.96-1.87,11.57,3.09,14.73,4.96,3.23,11.57,1.87,14.73-3.09,3.23-4.89,1.87-11.5-3.09-14.73h0Z"/><path class="cls-6" d="M328.8,160.2c.29-5.03-3.52-9.27-8.55-9.56-5.03-.29-9.27,3.52-9.56,8.55s3.52,9.27,8.55,9.56h0c4.96.29,9.27-3.59,9.56-8.55Z"/><path class="cls-6" d="M353.87,153.73c-3.23-.22-6.03,2.3-6.18,5.53s2.3,6.03,5.53,6.18c3.23.22,5.96-2.3,6.18-5.53.14-3.23-2.3-5.96-5.53-6.18Z"/><path class="cls-6" d="M330.23,211.93c-3.45-2.23-8.05-1.29-10.35,2.16-2.23,3.45-1.29,8.05,2.16,10.35,3.45,2.23,8.05,1.29,10.35-2.16,2.3-3.45,1.29-8.12-2.16-10.35h0Z"/><path class="cls-6" d="M163.7,266.67c-2.73-1.8-6.32-1.01-8.12,1.65-1.8,2.73-1.01,6.32,1.65,8.12,2.73,1.8,6.32,1.01,8.12-1.65h0c1.87-2.66,1.08-6.32-1.65-8.12Z"/><path class="cls-6" d="M286.69,266c-3.25,1.63-4.3,6.01-1.88,8.99,1.4,1.74,3.77,2.5,5.93,1.96,3.78-.93,5.49-5.03,3.85-8.3-1.44-2.95-4.96-4.17-7.9-2.66.07,0,0,0,0,0Z"/><path class="cls-6" d="M218.59,206.9c5.46-8.41,3.16-19.61-5.24-25.15-8.41-5.46-19.61-3.16-25.15,5.24s-3.16,19.61,5.24,25.15c2.95,1.94,6.39,2.95,9.91,2.95,6.18.07,11.85-3.02,15.23-8.19Z"/><path class="cls-6" d="M182.3,234.7c-4.17-2.73-9.84-1.58-12.57,2.59-2.73,4.17-1.58,9.84,2.59,12.57,4.17,2.73,9.84,1.58,12.57-2.59h0c2.8-4.17,1.65-9.84-2.59-12.57Z"/><path class="cls-6" d="M224.62,269.4c-4.1-.22-7.62,2.95-7.9,7.04s2.95,7.62,7.04,7.9c4.1.22,7.62-2.87,7.9-6.97.22-4.17-2.95-7.69-7.04-7.97h0Z"/><path class="cls-6" d="M224.69,222.49c-5.89-.36-10.92,4.17-11.21,10.06-.36,5.89,4.17,10.92,10.06,11.21s10.92-4.17,11.21-10.06c.36-5.82-4.17-10.92-10.06-11.21h0Z"/><path class="cls-6" d="M268.3,233.98c-4.45,2.3-6.25,7.76-3.95,12.21s7.76,6.25,12.21,3.95c4.45-2.23,6.25-7.69,4.02-12.14-2.3-4.45-7.76-6.32-12.29-4.02h0Z"/></g><polygon class="cls-2" points="342.41 236.5 89.54 238.17 168.19 150.78 204.19 200.78 266.19 111.78 342.41 236.5"/><polygon class="cls-1" points="343.19 237.11 207.19 430.11 87.19 240.11 89.54 237.5 342.41 235.83 343.19 237.11"/><line class="cls-3" x1="452" y1="235.5" x2="342" y2="236.22"/><line class="cls-3" x1="90" y1="237.5" x2="-3" y2="238.11"/><line class="cls-3" x1="269.19" y1="169.53" x2="293.19" y2="209.53"/><line class="cls-3" x1="168.19" y1="190.53" x2="137.19" y2="223.53"/></g></g></svg>